<svg width="24" height="24" viewBox="0 0 24 24" fill="none" xmlns="http://www.w3.org/2000/svg">
<path d="M2 6C2 4.93913 2.42143 3.92172 3.17157 3.17157C3.92172 2.42143 4.93913 2 6 2H18C19.0609 2 20.0783 2.42143 20.8284 3.17157C21.5786 3.92172 22 4.93913 22 6V18C22 19.0609 21.5786 20.0783 20.8284 20.8284C20.0783 21.5786 19.0609 22 18 22H6C4.93913 22 3.92172 21.5786 3.17157 20.8284C2.42143 20.0783 2 19.0609 2 18V6Z" stroke="black" stroke-width="2" stroke-linecap="round" stroke-linejoin="round"/>
<path d="M9 16.4993V8.77927C9.00001 8.55634 9.0745 8.33981 9.21166 8.16406C9.34881 7.98832 9.54075 7.86344 9.757 7.80927L15.757 6.30927C15.9044 6.27233 16.0584 6.2695 16.2071 6.30098C16.3558 6.33245 16.4954 6.39742 16.6152 6.49094C16.735 6.58445 16.832 6.70406 16.8987 6.84066C16.9653 6.97726 17 7.12727 17 7.27927V14.9993" stroke="black" stroke-width="2" stroke-linecap="round" stroke-linejoin="round"/>
<path d="M9 11L17 9" stroke="black" stroke-width="2"/>
<path d="M7.5 18C8.32843 18 9 17.3284 9 16.5C9 15.6716 8.32843 15 7.5 15C6.67157 15 6 15.6716 6 16.5C6 17.3284 6.67157 18 7.5 18Z" stroke="black" stroke-width="2"/>
<path d="M15.5 17C16.3284 17 17 16.3284 17 15.5C17 14.6716 16.3284 14 15.5 14C14.6716 14 14 14.6716 14 15.5C14 16.3284 14.6716 17 15.5 17Z" stroke="black" stroke-width="2"/>
</svg>
