<svg width="24" height="22" viewBox="0 0 24 22" fill="none" xmlns="http://www.w3.org/2000/svg">
<path d="M13 15.1179C13 16.8908 14.573 18.3327 16.507 18.3327C18.441 18.3327 20.014 16.8908 20.014 15.1179C20.014 14.9557 19.987 14.7998 19.961 14.644H20V5.49935H22V3.66602H19C18.7348 3.66602 18.4804 3.76259 18.2929 3.9345C18.1054 4.10641 18 4.33957 18 4.58268V12.2213C17.5344 12.0147 17.0243 11.9063 16.507 11.9041C15.5773 11.9048 14.6859 12.2436 14.0284 12.8462C13.3709 13.4487 13.0011 14.2657 13 15.1179V15.1179ZM2 4.58268H16V6.41602H2V4.58268Z" fill="white"/>
<path d="M2.5 8.75H15.5V9.58333H2.5V8.75ZM2.5 12.4167H10.5V13.25H2.5V12.4167ZM2.5 16.0833H10.5V16.9167H2.5V16.0833Z" fill="white" stroke="white"/>
</svg>
