<svg width="24" height="24" viewBox="0 0 24 24" fill="none" xmlns="http://www.w3.org/2000/svg">
<path d="M12 2C9.35831 2.03369 6.8343 3.09807 4.96618 4.96618C3.09807 6.8343 2.03369 9.35831 2 12C2.01235 13.5389 2.37972 15.0542 3.07351 16.4279C3.7673 17.8016 4.76879 18.9967 6 19.92V20H6.1C7.79318 21.2975 9.86685 22.0006 12 22.0006C14.1332 22.0006 16.2068 21.2975 17.9 20H18V19.92C19.2312 18.9967 20.2327 17.8016 20.9265 16.4279C21.6203 15.0542 21.9877 13.5389 22 12C21.9663 9.35831 20.9019 6.8343 19.0338 4.96618C17.1657 3.09807 14.6417 2.03369 12 2V2ZM8.07 18.93C8.21599 18.2614 8.58615 17.6629 9.11908 17.2336C9.65202 16.8044 10.3157 16.5702 11 16.57H13C13.6843 16.5702 14.348 16.8044 14.8809 17.2336C15.4138 17.6629 15.784 18.2614 15.93 18.93C14.7389 19.6308 13.382 20.0004 12 20.0004C10.618 20.0004 9.26113 19.6308 8.07 18.93V18.93ZM17.61 17.64C17.2296 16.7309 16.5891 15.9546 15.7689 15.4084C14.9487 14.8622 13.9854 14.5705 13 14.57H11C10.0146 14.5705 9.05127 14.8622 8.23108 15.4084C7.41088 15.9546 6.77037 16.7309 6.39 17.64C5.64066 16.903 5.0439 16.0255 4.63381 15.0578C4.22373 14.0901 4.00835 13.051 4 12C4.02594 9.88633 4.87712 7.86653 6.37183 6.37183C7.86653 4.87712 9.88633 4.02594 12 4C14.1137 4.02594 16.1335 4.87712 17.6282 6.37183C19.1229 7.86653 19.9741 9.88633 20 12C19.9916 13.051 19.7763 14.0901 19.3662 15.0578C18.9561 16.0255 18.3593 16.903 17.61 17.64V17.64Z" fill="white"/>
<path d="M12.0001 5.99911C11.4714 5.98679 10.9458 6.08184 10.4549 6.2785C9.96403 6.47516 9.51815 6.76934 9.14424 7.14326C8.77032 7.51718 8.47613 7.96305 8.27947 8.45392C8.08282 8.94479 7.98777 9.47045 8.00008 9.99911C7.98777 10.5278 8.08282 11.0534 8.27947 11.5443C8.47613 12.0352 8.77032 12.481 9.14424 12.855C9.51815 13.2289 9.96403 13.5231 10.4549 13.7197C10.9458 13.9164 11.4714 14.0114 12.0001 13.9991C12.5287 14.0114 13.0544 13.9164 13.5453 13.7197C14.0361 13.5231 14.482 13.2289 14.8559 12.855C15.2298 12.481 15.524 12.0352 15.7207 11.5443C15.9174 11.0534 16.0124 10.5278 16.0001 9.99911C16.0124 9.47045 15.9174 8.94479 15.7207 8.45392C15.524 7.96305 15.2298 7.51718 14.8559 7.14326C14.482 6.76934 14.0361 6.47516 13.5453 6.2785C13.0544 6.08184 12.5287 5.98679 12.0001 5.99911V5.99911ZM12.0001 11.9991C11.734 12.012 11.4682 11.969 11.2198 11.8731C10.9713 11.7771 10.7456 11.6303 10.5573 11.4419C10.3689 11.2536 10.2221 11.0279 10.1261 10.7794C10.0301 10.531 9.98722 10.2652 10.0001 9.99911C9.98722 9.73306 10.0301 9.46726 10.1261 9.21878C10.2221 8.97031 10.3689 8.74465 10.5573 8.5563C10.7456 8.36796 10.9713 8.22109 11.2198 8.12513C11.4682 8.02917 11.734 7.98625 12.0001 7.99911C12.2661 7.98625 12.5319 8.02917 12.7804 8.12513C13.0289 8.22109 13.2545 8.36796 13.4429 8.5563C13.6312 8.74465 13.7781 8.97031 13.8741 9.21878C13.97 9.46726 14.0129 9.73306 14.0001 9.99911C14.0129 10.2652 13.97 10.531 13.8741 10.7794C13.7781 11.0279 13.6312 11.2536 13.4429 11.4419C13.2545 11.6303 13.0289 11.7771 12.7804 11.8731C12.5319 11.969 12.2661 12.012 12.0001 11.9991Z" fill="white"/>
</svg>
