<svg width="1499" height="1029" viewBox="0 0 1499 1029" fill="none" xmlns="http://www.w3.org/2000/svg">
<rect width="1444" height="904" transform="translate(55 111)" fill="#0F0B0B"/>
<circle cx="236.128" cy="384.774" r="106.909" transform="rotate(-76.3436 236.128 384.774)" fill="#660099" fill-opacity="0.15"/>
<circle cx="219.988" cy="185.262" r="44.1212" transform="rotate(-76.3436 219.988 185.262)" fill="#660099" fill-opacity="0.15"/>
<circle cx="342.013" cy="214.91" r="44.1212" transform="rotate(-76.3436 342.013 214.91)" fill="#660099" fill-opacity="0.15"/>
<circle cx="305.04" cy="101.147" r="28.8485" transform="rotate(-76.3436 305.04 101.147)" fill="#660099" fill-opacity="0.15"/>
<circle cx="256.802" cy="26.5585" r="11.8788" transform="rotate(-76.3436 256.802 26.5585)" fill="#660099" fill-opacity="0.15"/>
<circle cx="289.782" cy="34.5721" r="11.8788" transform="rotate(-76.3436 289.782 34.5721)" fill="#660099" fill-opacity="0.15"/>
<circle cx="322.762" cy="42.5839" r="11.8788" transform="rotate(-76.3436 322.762 42.5839)" fill="#660099" fill-opacity="0.15"/>
<circle cx="355.742" cy="50.5975" r="11.8788" transform="rotate(-76.3436 355.742 50.5975)" fill="#660099" fill-opacity="0.15"/>
<circle cx="388.721" cy="58.6112" r="11.8788" transform="rotate(-76.3436 388.721 58.6112)" fill="#660099" fill-opacity="0.15"/>
<circle cx="421.701" cy="66.6229" r="11.8788" transform="rotate(-76.3436 421.701 66.6229)" fill="#660099" fill-opacity="0.15"/>
<circle cx="1268.13" cy="370.774" r="106.909" transform="rotate(-76.3436 1268.13 370.774)" fill="#660099" fill-opacity="0.15"/>
<circle cx="1251.99" cy="171.262" r="44.1212" transform="rotate(-76.3436 1251.99 171.262)" fill="#660099" fill-opacity="0.15"/>
<circle cx="1374.01" cy="200.91" r="44.1212" transform="rotate(-76.3436 1374.01 200.91)" fill="#660099" fill-opacity="0.15"/>
<circle cx="1337.04" cy="87.1473" r="28.8485" transform="rotate(-76.3436 1337.04 87.1473)" fill="#660099" fill-opacity="0.15"/>
<circle cx="1288.8" cy="12.5585" r="11.8788" transform="rotate(-76.3436 1288.8 12.5585)" fill="#660099" fill-opacity="0.15"/>
<circle cx="1321.78" cy="20.5721" r="11.8788" transform="rotate(-76.3436 1321.78 20.5721)" fill="#660099" fill-opacity="0.15"/>
<circle cx="1354.76" cy="28.5839" r="11.8788" transform="rotate(-76.3436 1354.76 28.5839)" fill="#660099" fill-opacity="0.15"/>
<circle cx="1387.74" cy="36.5975" r="11.8788" transform="rotate(-76.3436 1387.74 36.5975)" fill="#660099" fill-opacity="0.15"/>
<circle cx="1420.72" cy="44.6112" r="11.8788" transform="rotate(-76.3436 1420.72 44.6112)" fill="#660099" fill-opacity="0.15"/>
<circle cx="1453.7" cy="52.6229" r="11.8788" transform="rotate(-76.3436 1453.7 52.6229)" fill="#660099" fill-opacity="0.15"/>
<circle cx="1232.65" cy="660.96" r="106.909" transform="rotate(58.5881 1232.65 660.96)" fill="#660099" fill-opacity="0.15"/>
<circle cx="1385.29" cy="790.441" r="44.1212" transform="rotate(58.5881 1385.29 790.441)" fill="#660099" fill-opacity="0.15"/>
<circle cx="1278.12" cy="855.891" r="44.1212" transform="rotate(58.5881 1278.12 855.891)" fill="#660099" fill-opacity="0.15"/>
<circle cx="1384.77" cy="910.062" r="28.8485" transform="rotate(58.5881 1384.77 910.062)" fill="#660099" fill-opacity="0.15"/>
<circle cx="1471.65" cy="928.591" r="11.8788" transform="rotate(58.5881 1471.65 928.591)" fill="#660099" fill-opacity="0.15"/>
<circle cx="1442.68" cy="946.28" r="11.8788" transform="rotate(58.5881 1442.68 946.28)" fill="#660099" fill-opacity="0.15"/>
<circle cx="1413.72" cy="963.97" r="11.8788" transform="rotate(58.5881 1413.72 963.97)" fill="#660099" fill-opacity="0.15"/>
<circle cx="1384.75" cy="981.657" r="11.8788" transform="rotate(58.5881 1384.75 981.657)" fill="#660099" fill-opacity="0.15"/>
<circle cx="1355.79" cy="999.346" r="11.8788" transform="rotate(58.5881 1355.79 999.346)" fill="#660099" fill-opacity="0.15"/>
<circle cx="1326.82" cy="1017.03" r="11.8788" transform="rotate(58.5881 1326.82 1017.03)" fill="#660099" fill-opacity="0.15"/>
<circle cx="295.787" cy="667.9" r="106.909" transform="rotate(123.685 295.787 667.9)" fill="#660099" fill-opacity="0.15"/>
<circle cx="242.619" cy="860.873" r="44.1212" transform="rotate(123.685 242.619 860.873)" fill="#660099" fill-opacity="0.15"/>
<circle cx="138.128" cy="791.225" r="44.1212" transform="rotate(123.685 138.128 791.225)" fill="#660099" fill-opacity="0.15"/>
<circle cx="133.902" cy="910.772" r="28.8485" transform="rotate(123.685 133.902 910.772)" fill="#660099" fill-opacity="0.15"/>
<circle cx="153.677" cy="997.37" r="11.8788" transform="rotate(123.685 153.677 997.37)" fill="#660099" fill-opacity="0.15"/>
<circle cx="125.437" cy="978.546" r="11.8788" transform="rotate(123.685 125.437 978.546)" fill="#660099" fill-opacity="0.15"/>
<circle cx="97.1953" cy="959.724" r="11.8788" transform="rotate(123.685 97.1953 959.724)" fill="#660099" fill-opacity="0.15"/>
<circle cx="68.9546" cy="940.9" r="11.8788" transform="rotate(123.685 68.9546 940.9)" fill="#660099" fill-opacity="0.15"/>
<circle cx="40.7139" cy="922.075" r="11.8788" transform="rotate(123.685 40.7139 922.075)" fill="#660099" fill-opacity="0.15"/>
<circle cx="12.4727" cy="903.251" r="11.8788" transform="rotate(123.685 12.4727 903.251)" fill="#660099" fill-opacity="0.15"/>
</svg>
