<svg width="491" height="570" viewBox="0 0 491 570" fill="none" xmlns="http://www.w3.org/2000/svg">
<circle cx="146.96" cy="174.539" r="106.909" transform="rotate(58.5881 146.96 174.539)" fill="#660099" fill-opacity="0.15"/>
<circle cx="361.603" cy="304.019" r="44.1212" transform="rotate(58.5881 361.603 304.019)" fill="#660099" fill-opacity="0.15"/>
<circle cx="254.431" cy="369.469" r="44.1212" transform="rotate(58.5881 254.431 369.469)" fill="#660099" fill-opacity="0.15"/>
<circle cx="361.083" cy="423.64" r="28.8485" transform="rotate(58.5881 361.083 423.64)" fill="#660099" fill-opacity="0.15"/>
<circle cx="447.958" cy="442.169" r="11.8788" transform="rotate(58.5881 447.958 442.169)" fill="#660099" fill-opacity="0.15"/>
<circle cx="418.992" cy="459.858" r="11.8788" transform="rotate(58.5881 418.992 459.858)" fill="#660099" fill-opacity="0.15"/>
<circle cx="390.027" cy="477.546" r="11.8788" transform="rotate(58.5881 390.027 477.546)" fill="#660099" fill-opacity="0.15"/>
<circle cx="361.062" cy="495.235" r="11.8788" transform="rotate(58.5881 361.062 495.235)" fill="#660099" fill-opacity="0.15"/>
<circle cx="332.096" cy="512.925" r="11.8788" transform="rotate(58.5881 332.096 512.925)" fill="#660099" fill-opacity="0.15"/>
<circle cx="303.131" cy="530.612" r="11.8788" transform="rotate(58.5881 303.131 530.612)" fill="#660099" fill-opacity="0.15"/>
</svg>
