<svg width="513" height="462" viewBox="0 0 513 462" fill="none" xmlns="http://www.w3.org/2000/svg">
<circle cx="155.659" cy="149.583" r="106.909" transform="rotate(36.6338 155.659 149.583)" fill="#660099" fill-opacity="0.15"/>
<circle cx="345.641" cy="212.608" r="44.1212" transform="rotate(36.6338 345.641 212.608)" fill="#660099" fill-opacity="0.15"/>
<circle cx="270.71" cy="313.377" r="44.1212" transform="rotate(36.6338 270.71 313.377)" fill="#660099" fill-opacity="0.15"/>
<circle cx="389.881" cy="323.747" r="28.8485" transform="rotate(36.6338 389.881 323.747)" fill="#660099" fill-opacity="0.15"/>
<circle cx="477.383" cy="308.452" r="11.8788" transform="rotate(36.6338 477.383 308.452)" fill="#660099" fill-opacity="0.15"/>
<circle cx="457.131" cy="335.689" r="11.8788" transform="rotate(36.6338 457.131 335.689)" fill="#660099" fill-opacity="0.15"/>
<circle cx="436.879" cy="362.923" r="11.8788" transform="rotate(36.6338 436.879 362.923)" fill="#660099" fill-opacity="0.15"/>
<circle cx="416.628" cy="390.157" r="11.8788" transform="rotate(36.6338 416.628 390.157)" fill="#660099" fill-opacity="0.15"/>
<circle cx="396.376" cy="417.394" r="11.8788" transform="rotate(36.6338 396.376 417.394)" fill="#660099" fill-opacity="0.15"/>
<circle cx="376.125" cy="444.628" r="11.8788" transform="rotate(36.6338 376.125 444.628)" fill="#660099" fill-opacity="0.15"/>
</svg>
