<svg width="330" height="512" viewBox="0 0 330 512" fill="none" xmlns="http://www.w3.org/2000/svg">
<circle cx="129.128" cy="379.774" r="106.909" transform="rotate(-76.3436 129.128 379.774)" fill="#660099" fill-opacity="0.15"/>
<circle cx="112.988" cy="180.262" r="44.1212" transform="rotate(-76.3436 112.988 180.262)" fill="#660099" fill-opacity="0.15"/>
<circle cx="235.013" cy="209.91" r="44.1212" transform="rotate(-76.3436 235.013 209.91)" fill="#660099" fill-opacity="0.15"/>
<circle cx="198.04" cy="96.1473" r="28.8485" transform="rotate(-76.3436 198.04 96.1473)" fill="#660099" fill-opacity="0.15"/>
<circle cx="149.802" cy="21.5585" r="11.8788" transform="rotate(-76.3436 149.802 21.5585)" fill="#660099" fill-opacity="0.15"/>
<circle cx="182.782" cy="29.5721" r="11.8788" transform="rotate(-76.3436 182.782 29.5721)" fill="#660099" fill-opacity="0.15"/>
<circle cx="215.762" cy="37.5839" r="11.8788" transform="rotate(-76.3436 215.762 37.5839)" fill="#660099" fill-opacity="0.15"/>
<circle cx="248.742" cy="45.5975" r="11.8788" transform="rotate(-76.3436 248.742 45.5975)" fill="#660099" fill-opacity="0.15"/>
<circle cx="281.721" cy="53.6112" r="11.8788" transform="rotate(-76.3436 281.721 53.6112)" fill="#660099" fill-opacity="0.15"/>
<circle cx="314.701" cy="61.6229" r="11.8788" transform="rotate(-76.3436 314.701 61.6229)" fill="#660099" fill-opacity="0.15"/>
</svg>
