<svg width="475" height="506" viewBox="0 0 475 506" fill="none" xmlns="http://www.w3.org/2000/svg">
<circle cx="315.807" cy="355.172" r="106.909" transform="rotate(-129.835 315.807 355.172)" fill="#660099" fill-opacity="0.15"/>
<circle cx="145.845" cy="249.444" r="44.1212" transform="rotate(-129.835 145.845 249.444)" fill="#660099" fill-opacity="0.15"/>
<circle cx="242.274" cy="169.005" r="44.1212" transform="rotate(-129.835 242.274 169.005)" fill="#660099" fill-opacity="0.15"/>
<circle cx="128.838" cy="131.04" r="28.8485" transform="rotate(-129.835 128.838 131.04)" fill="#660099" fill-opacity="0.15"/>
<circle cx="40.1868" cy="125.435" r="11.8788" transform="rotate(-129.835 40.1868 125.435)" fill="#660099" fill-opacity="0.15"/>
<circle cx="66.2483" cy="103.695" r="11.8788" transform="rotate(-129.835 66.2483 103.695)" fill="#660099" fill-opacity="0.15"/>
<circle cx="92.3103" cy="81.9527" r="11.8788" transform="rotate(-129.835 92.3103 81.9527)" fill="#660099" fill-opacity="0.15"/>
<circle cx="118.372" cy="60.2124" r="11.8788" transform="rotate(-129.835 118.372 60.2124)" fill="#660099" fill-opacity="0.15"/>
<circle cx="144.434" cy="38.4722" r="11.8788" transform="rotate(-129.835 144.434 38.4722)" fill="#660099" fill-opacity="0.15"/>
<circle cx="170.496" cy="16.732" r="11.8788" transform="rotate(-129.835 170.496 16.732)" fill="#660099" fill-opacity="0.15"/>
</svg>
