<svg width="449" height="517" viewBox="0 0 449 517" fill="none" xmlns="http://www.w3.org/2000/svg">
<circle cx="299.786" cy="153.9" r="106.909" transform="rotate(123.685 299.786 153.9)" fill="#660099" fill-opacity="0.15"/>
<circle cx="246.619" cy="346.873" r="44.1212" transform="rotate(123.685 246.619 346.873)" fill="#660099" fill-opacity="0.15"/>
<circle cx="142.127" cy="277.225" r="44.1212" transform="rotate(123.685 142.127 277.225)" fill="#660099" fill-opacity="0.15"/>
<circle cx="137.902" cy="396.772" r="28.8485" transform="rotate(123.685 137.902 396.772)" fill="#660099" fill-opacity="0.15"/>
<circle cx="157.677" cy="483.37" r="11.8788" transform="rotate(123.685 157.677 483.37)" fill="#660099" fill-opacity="0.15"/>
<circle cx="129.436" cy="464.546" r="11.8788" transform="rotate(123.685 129.436 464.546)" fill="#660099" fill-opacity="0.15"/>
<circle cx="101.195" cy="445.724" r="11.8788" transform="rotate(123.685 101.195 445.724)" fill="#660099" fill-opacity="0.15"/>
<circle cx="72.9541" cy="426.9" r="11.8788" transform="rotate(123.685 72.9541 426.9)" fill="#660099" fill-opacity="0.15"/>
<circle cx="44.7134" cy="408.075" r="11.8788" transform="rotate(123.685 44.7134 408.075)" fill="#660099" fill-opacity="0.15"/>
<circle cx="16.4722" cy="389.251" r="11.8788" transform="rotate(123.685 16.4722 389.251)" fill="#660099" fill-opacity="0.15"/>
</svg>
